<mxfile host="app.diagrams.net" modified="2023-10-29T08:56:57.926Z" agent="Mozilla/5.0 (Windows NT 10.0; Win64; x64) AppleWebKit/537.36 (KHTML, like Gecko) Chrome/118.0.0.0 Safari/537.36" etag="4U4Q77ZWPgh2VBWVeNa6" version="22.0.8" type="device">
  <diagram name="Page-1" id="vi2_kmrqZDB8lB05CX_y">
    <mxGraphModel dx="1434" dy="750" grid="1" gridSize="10" guides="1" tooltips="1" connect="1" arrows="1" fold="1" page="1" pageScale="1" pageWidth="827" pageHeight="1169" math="0" shadow="0">
      <root>
        <mxCell id="0" />
        <mxCell id="1" parent="0" />
        <mxCell id="8p2BNzOD3IAKoTxh3BdR-1" style="edgeStyle=orthogonalEdgeStyle;rounded=0;orthogonalLoop=1;jettySize=auto;html=1;endArrow=none;endFill=0;labelBackgroundColor=none;fontColor=default;" edge="1" parent="1" source="8p2BNzOD3IAKoTxh3BdR-20" target="8p2BNzOD3IAKoTxh3BdR-36">
          <mxGeometry relative="1" as="geometry">
            <Array as="points">
              <mxPoint x="340" y="741" />
              <mxPoint x="230" y="741" />
            </Array>
          </mxGeometry>
        </mxCell>
        <mxCell id="8p2BNzOD3IAKoTxh3BdR-2" value="0..*" style="edgeLabel;html=1;align=center;verticalAlign=middle;resizable=0;points=[];labelBackgroundColor=none;" vertex="1" connectable="0" parent="8p2BNzOD3IAKoTxh3BdR-1">
          <mxGeometry x="-0.9274" y="-1" relative="1" as="geometry">
            <mxPoint y="-2" as="offset" />
          </mxGeometry>
        </mxCell>
        <mxCell id="8p2BNzOD3IAKoTxh3BdR-3" value="has 1..* Referees&lt;br&gt;in a Match" style="edgeLabel;html=1;align=center;verticalAlign=middle;resizable=0;points=[];labelBackgroundColor=default;" vertex="1" connectable="0" parent="8p2BNzOD3IAKoTxh3BdR-1">
          <mxGeometry x="0.9732" y="1" relative="1" as="geometry">
            <mxPoint y="11" as="offset" />
          </mxGeometry>
        </mxCell>
        <mxCell id="8p2BNzOD3IAKoTxh3BdR-4" style="edgeStyle=orthogonalEdgeStyle;rounded=0;orthogonalLoop=1;jettySize=auto;html=1;endArrow=none;endFill=0;startArrow=diamond;startFill=0;labelBackgroundColor=none;fontColor=default;" edge="1" parent="1" source="8p2BNzOD3IAKoTxh3BdR-20" target="8p2BNzOD3IAKoTxh3BdR-53">
          <mxGeometry relative="1" as="geometry">
            <Array as="points">
              <mxPoint x="285" y="872.85" />
              <mxPoint x="285" y="872.85" />
            </Array>
          </mxGeometry>
        </mxCell>
        <mxCell id="8p2BNzOD3IAKoTxh3BdR-5" value="has 0..* Actions&amp;nbsp;&lt;br&gt;describing what&lt;br&gt;happens in the&lt;br&gt;Match" style="edgeLabel;html=1;align=center;verticalAlign=middle;resizable=0;points=[];labelBackgroundColor=none;" vertex="1" connectable="0" parent="8p2BNzOD3IAKoTxh3BdR-4">
          <mxGeometry x="0.799" relative="1" as="geometry">
            <mxPoint x="32" y="10" as="offset" />
          </mxGeometry>
        </mxCell>
        <mxCell id="8p2BNzOD3IAKoTxh3BdR-6" value="1" style="edgeLabel;html=1;align=center;verticalAlign=middle;resizable=0;points=[];labelBackgroundColor=none;" vertex="1" connectable="0" parent="8p2BNzOD3IAKoTxh3BdR-4">
          <mxGeometry x="-0.6019" relative="1" as="geometry">
            <mxPoint x="2" y="10" as="offset" />
          </mxGeometry>
        </mxCell>
        <mxCell id="8p2BNzOD3IAKoTxh3BdR-7" style="edgeStyle=orthogonalEdgeStyle;rounded=0;orthogonalLoop=1;jettySize=auto;html=1;endArrow=none;endFill=0;labelBackgroundColor=none;fontColor=default;" edge="1" parent="1" source="8p2BNzOD3IAKoTxh3BdR-20" target="8p2BNzOD3IAKoTxh3BdR-43">
          <mxGeometry relative="1" as="geometry">
            <mxPoint x="408.9999999999999" y="791" as="sourcePoint" />
            <mxPoint x="619" y="601" as="targetPoint" />
            <Array as="points">
              <mxPoint x="409" y="721" />
              <mxPoint x="690" y="721" />
            </Array>
          </mxGeometry>
        </mxCell>
        <mxCell id="8p2BNzOD3IAKoTxh3BdR-8" value="has 1 Location the&lt;br&gt;Match is played in" style="edgeLabel;html=1;align=center;verticalAlign=middle;resizable=0;points=[];labelBackgroundColor=default;" vertex="1" connectable="0" parent="8p2BNzOD3IAKoTxh3BdR-7">
          <mxGeometry x="0.9669" y="-1" relative="1" as="geometry">
            <mxPoint x="3" y="7" as="offset" />
          </mxGeometry>
        </mxCell>
        <mxCell id="8p2BNzOD3IAKoTxh3BdR-9" value="0..*" style="edgeLabel;html=1;align=center;verticalAlign=middle;resizable=0;points=[];labelBackgroundColor=none;" vertex="1" connectable="0" parent="8p2BNzOD3IAKoTxh3BdR-7">
          <mxGeometry x="-0.9643" y="1" relative="1" as="geometry">
            <mxPoint y="39" as="offset" />
          </mxGeometry>
        </mxCell>
        <mxCell id="8p2BNzOD3IAKoTxh3BdR-10" value="0..*" style="edgeLabel;html=1;align=center;verticalAlign=middle;resizable=0;points=[];" vertex="1" connectable="0" parent="8p2BNzOD3IAKoTxh3BdR-7">
          <mxGeometry x="-0.9076" relative="1" as="geometry">
            <mxPoint as="offset" />
          </mxGeometry>
        </mxCell>
        <mxCell id="8p2BNzOD3IAKoTxh3BdR-11" style="edgeStyle=orthogonalEdgeStyle;rounded=0;orthogonalLoop=1;jettySize=auto;html=1;endArrow=none;endFill=0;startArrow=diamond;startFill=0;labelBackgroundColor=none;fontColor=default;" edge="1" parent="1" source="8p2BNzOD3IAKoTxh3BdR-20" target="8p2BNzOD3IAKoTxh3BdR-62">
          <mxGeometry relative="1" as="geometry">
            <Array as="points">
              <mxPoint x="465" y="872.85" />
              <mxPoint x="465" y="872.85" />
            </Array>
          </mxGeometry>
        </mxCell>
        <mxCell id="8p2BNzOD3IAKoTxh3BdR-12" value="has 1 Ruleset&lt;br&gt;defining the Rules&lt;br&gt;of the Match" style="edgeLabel;html=1;align=center;verticalAlign=middle;resizable=0;points=[];labelBackgroundColor=none;" vertex="1" connectable="0" parent="8p2BNzOD3IAKoTxh3BdR-11">
          <mxGeometry x="0.7832" y="-1" relative="1" as="geometry">
            <mxPoint x="-32" y="6" as="offset" />
          </mxGeometry>
        </mxCell>
        <mxCell id="8p2BNzOD3IAKoTxh3BdR-13" value="0..*" style="edgeLabel;html=1;align=center;verticalAlign=middle;resizable=0;points=[];labelBackgroundColor=none;" vertex="1" connectable="0" parent="8p2BNzOD3IAKoTxh3BdR-11">
          <mxGeometry x="-0.5386" relative="1" as="geometry">
            <mxPoint x="-15" y="7" as="offset" />
          </mxGeometry>
        </mxCell>
        <mxCell id="8p2BNzOD3IAKoTxh3BdR-14" style="edgeStyle=orthogonalEdgeStyle;rounded=0;orthogonalLoop=1;jettySize=auto;html=1;endArrow=none;endFill=0;startArrow=diamond;startFill=1;labelBackgroundColor=none;fontColor=default;" edge="1" parent="1" source="8p2BNzOD3IAKoTxh3BdR-20" target="8p2BNzOD3IAKoTxh3BdR-83">
          <mxGeometry relative="1" as="geometry">
            <Array as="points">
              <mxPoint x="370" y="770" />
              <mxPoint x="370" y="770" />
            </Array>
          </mxGeometry>
        </mxCell>
        <mxCell id="8p2BNzOD3IAKoTxh3BdR-15" value="has 1..* Lineups&lt;br&gt;describing the Players&lt;br&gt;and their Positions in&lt;br&gt;the Match" style="edgeLabel;html=1;align=center;verticalAlign=middle;resizable=0;points=[];labelBackgroundColor=default;" vertex="1" connectable="0" parent="8p2BNzOD3IAKoTxh3BdR-14">
          <mxGeometry x="0.8043" relative="1" as="geometry">
            <mxPoint x="-20" y="15" as="offset" />
          </mxGeometry>
        </mxCell>
        <mxCell id="8p2BNzOD3IAKoTxh3BdR-16" value="1" style="edgeLabel;html=1;align=center;verticalAlign=middle;resizable=0;points=[];labelBackgroundColor=none;" vertex="1" connectable="0" parent="8p2BNzOD3IAKoTxh3BdR-14">
          <mxGeometry x="-0.6108" y="-1" relative="1" as="geometry">
            <mxPoint x="4" as="offset" />
          </mxGeometry>
        </mxCell>
        <mxCell id="8p2BNzOD3IAKoTxh3BdR-17" style="edgeStyle=orthogonalEdgeStyle;rounded=0;orthogonalLoop=1;jettySize=auto;html=1;endArrow=none;endFill=0;labelBackgroundColor=none;fontColor=default;" edge="1" parent="1" source="8p2BNzOD3IAKoTxh3BdR-20" target="8p2BNzOD3IAKoTxh3BdR-89">
          <mxGeometry relative="1" as="geometry">
            <Array as="points">
              <mxPoint x="325" y="802.85" />
              <mxPoint x="155" y="802.85" />
            </Array>
          </mxGeometry>
        </mxCell>
        <mxCell id="8p2BNzOD3IAKoTxh3BdR-18" value="has 1 User that&lt;br&gt;created the Match" style="edgeLabel;html=1;align=center;verticalAlign=middle;resizable=0;points=[];labelBackgroundColor=default;" vertex="1" connectable="0" parent="8p2BNzOD3IAKoTxh3BdR-17">
          <mxGeometry x="0.9419" y="-1" relative="1" as="geometry">
            <mxPoint x="24" y="8" as="offset" />
          </mxGeometry>
        </mxCell>
        <mxCell id="8p2BNzOD3IAKoTxh3BdR-19" value="0..*" style="edgeLabel;html=1;align=center;verticalAlign=middle;resizable=0;points=[];labelBackgroundColor=none;" vertex="1" connectable="0" parent="8p2BNzOD3IAKoTxh3BdR-17">
          <mxGeometry x="-0.9409" relative="1" as="geometry">
            <mxPoint x="-10" y="-1" as="offset" />
          </mxGeometry>
        </mxCell>
        <mxCell id="8p2BNzOD3IAKoTxh3BdR-20" value="Match" style="swimlane;fontStyle=0;childLayout=stackLayout;horizontal=1;startSize=26;fillColor=default;horizontalStack=0;resizeParent=1;resizeParentMax=0;resizeLast=0;collapsible=1;marginBottom=0;whiteSpace=wrap;html=1;labelBackgroundColor=none;" vertex="1" parent="1">
          <mxGeometry x="295" y="832.85" width="140" height="104" as="geometry" />
        </mxCell>
        <mxCell id="8p2BNzOD3IAKoTxh3BdR-21" value="+ name: String" style="text;strokeColor=none;fillColor=none;align=left;verticalAlign=top;spacingLeft=4;spacingRight=4;overflow=hidden;rotatable=0;points=[[0,0.5],[1,0.5]];portConstraint=eastwest;whiteSpace=wrap;html=1;labelBackgroundColor=none;" vertex="1" parent="8p2BNzOD3IAKoTxh3BdR-20">
          <mxGeometry y="26" width="140" height="26" as="geometry" />
        </mxCell>
        <mxCell id="8p2BNzOD3IAKoTxh3BdR-22" value="+ description: String" style="text;strokeColor=none;fillColor=none;align=left;verticalAlign=top;spacingLeft=4;spacingRight=4;overflow=hidden;rotatable=0;points=[[0,0.5],[1,0.5]];portConstraint=eastwest;whiteSpace=wrap;html=1;labelBackgroundColor=none;" vertex="1" parent="8p2BNzOD3IAKoTxh3BdR-20">
          <mxGeometry y="52" width="140" height="26" as="geometry" />
        </mxCell>
        <mxCell id="8p2BNzOD3IAKoTxh3BdR-23" value="- timestamp: Long" style="text;strokeColor=none;fillColor=none;align=left;verticalAlign=top;spacingLeft=4;spacingRight=4;overflow=hidden;rotatable=0;points=[[0,0.5],[1,0.5]];portConstraint=eastwest;whiteSpace=wrap;html=1;labelBackgroundColor=none;" vertex="1" parent="8p2BNzOD3IAKoTxh3BdR-20">
          <mxGeometry y="78" width="140" height="26" as="geometry" />
        </mxCell>
        <mxCell id="8p2BNzOD3IAKoTxh3BdR-24" style="edgeStyle=orthogonalEdgeStyle;rounded=0;orthogonalLoop=1;jettySize=auto;html=1;endArrow=none;endFill=0;startArrow=diamond;startFill=0;labelBackgroundColor=none;fontColor=default;" edge="1" parent="1" source="8p2BNzOD3IAKoTxh3BdR-30" target="8p2BNzOD3IAKoTxh3BdR-76">
          <mxGeometry relative="1" as="geometry" />
        </mxCell>
        <mxCell id="8p2BNzOD3IAKoTxh3BdR-25" value="has 0..* Trainers&lt;br&gt;for the Team" style="edgeLabel;html=1;align=center;verticalAlign=middle;resizable=0;points=[];labelBackgroundColor=default;" vertex="1" connectable="0" parent="8p2BNzOD3IAKoTxh3BdR-24">
          <mxGeometry x="0.8926" y="1" relative="1" as="geometry">
            <mxPoint y="8" as="offset" />
          </mxGeometry>
        </mxCell>
        <mxCell id="8p2BNzOD3IAKoTxh3BdR-26" value="1" style="edgeLabel;html=1;align=center;verticalAlign=middle;resizable=0;points=[];labelBackgroundColor=none;" vertex="1" connectable="0" parent="8p2BNzOD3IAKoTxh3BdR-24">
          <mxGeometry x="-0.7195" y="-1" relative="1" as="geometry">
            <mxPoint x="3" y="3" as="offset" />
          </mxGeometry>
        </mxCell>
        <mxCell id="8p2BNzOD3IAKoTxh3BdR-27" style="edgeStyle=orthogonalEdgeStyle;rounded=0;orthogonalLoop=1;jettySize=auto;html=1;endArrow=none;endFill=0;startArrow=diamond;startFill=0;labelBackgroundColor=none;fontColor=default;" edge="1" parent="1" source="8p2BNzOD3IAKoTxh3BdR-30" target="8p2BNzOD3IAKoTxh3BdR-57">
          <mxGeometry relative="1" as="geometry">
            <Array as="points">
              <mxPoint x="505" y="230" />
            </Array>
          </mxGeometry>
        </mxCell>
        <mxCell id="8p2BNzOD3IAKoTxh3BdR-28" value="1" style="edgeLabel;html=1;align=center;verticalAlign=middle;resizable=0;points=[];labelBackgroundColor=none;" vertex="1" connectable="0" parent="8p2BNzOD3IAKoTxh3BdR-27">
          <mxGeometry x="-0.8095" y="1" relative="1" as="geometry">
            <mxPoint x="-5" y="2" as="offset" />
          </mxGeometry>
        </mxCell>
        <mxCell id="8p2BNzOD3IAKoTxh3BdR-29" value="has 0..* Players&lt;br&gt;in the Team" style="edgeLabel;html=1;align=center;verticalAlign=middle;resizable=0;points=[];labelBackgroundColor=default;" vertex="1" connectable="0" parent="8p2BNzOD3IAKoTxh3BdR-27">
          <mxGeometry x="0.8998" y="1" relative="1" as="geometry">
            <mxPoint x="41" y="-2" as="offset" />
          </mxGeometry>
        </mxCell>
        <mxCell id="8p2BNzOD3IAKoTxh3BdR-30" value="Team" style="swimlane;fontStyle=0;childLayout=stackLayout;horizontal=1;startSize=26;fillColor=default;horizontalStack=0;resizeParent=1;resizeParentMax=0;resizeLast=0;collapsible=1;marginBottom=0;whiteSpace=wrap;html=1;labelBackgroundColor=none;" vertex="1" parent="1">
          <mxGeometry x="482" y="379.15" width="140" height="78" as="geometry" />
        </mxCell>
        <mxCell id="8p2BNzOD3IAKoTxh3BdR-31" value="+ name: String" style="text;strokeColor=none;fillColor=none;align=left;verticalAlign=top;spacingLeft=4;spacingRight=4;overflow=hidden;rotatable=0;points=[[0,0.5],[1,0.5]];portConstraint=eastwest;whiteSpace=wrap;html=1;labelBackgroundColor=none;" vertex="1" parent="8p2BNzOD3IAKoTxh3BdR-30">
          <mxGeometry y="26" width="140" height="26" as="geometry" />
        </mxCell>
        <mxCell id="8p2BNzOD3IAKoTxh3BdR-32" value="+ description: String" style="text;strokeColor=none;fillColor=none;align=left;verticalAlign=top;spacingLeft=4;spacingRight=4;overflow=hidden;rotatable=0;points=[[0,0.5],[1,0.5]];portConstraint=eastwest;whiteSpace=wrap;html=1;labelBackgroundColor=none;" vertex="1" parent="8p2BNzOD3IAKoTxh3BdR-30">
          <mxGeometry y="52" width="140" height="26" as="geometry" />
        </mxCell>
        <mxCell id="8p2BNzOD3IAKoTxh3BdR-33" style="edgeStyle=orthogonalEdgeStyle;rounded=0;orthogonalLoop=1;jettySize=auto;html=1;endArrow=none;endFill=0;startArrow=diamond;startFill=0;labelBackgroundColor=none;fontColor=default;" edge="1" parent="1" source="8p2BNzOD3IAKoTxh3BdR-36" target="8p2BNzOD3IAKoTxh3BdR-70">
          <mxGeometry relative="1" as="geometry">
            <Array as="points">
              <mxPoint x="100" y="342" />
            </Array>
          </mxGeometry>
        </mxCell>
        <mxCell id="8p2BNzOD3IAKoTxh3BdR-34" value="has 1 Position&lt;br&gt;in a Match" style="edgeLabel;html=1;align=center;verticalAlign=middle;resizable=0;points=[];labelBackgroundColor=default;" vertex="1" connectable="0" parent="8p2BNzOD3IAKoTxh3BdR-33">
          <mxGeometry x="0.9218" relative="1" as="geometry">
            <mxPoint x="-10" y="14" as="offset" />
          </mxGeometry>
        </mxCell>
        <mxCell id="8p2BNzOD3IAKoTxh3BdR-35" value="0..*" style="edgeLabel;html=1;align=center;verticalAlign=middle;resizable=0;points=[];labelBackgroundColor=none;" vertex="1" connectable="0" parent="8p2BNzOD3IAKoTxh3BdR-33">
          <mxGeometry x="-0.7992" y="1" relative="1" as="geometry">
            <mxPoint y="7" as="offset" />
          </mxGeometry>
        </mxCell>
        <mxCell id="8p2BNzOD3IAKoTxh3BdR-36" value="Referee" style="swimlane;fontStyle=0;childLayout=stackLayout;horizontal=1;startSize=26;fillColor=default;horizontalStack=0;resizeParent=1;resizeParentMax=0;resizeLast=0;collapsible=1;marginBottom=0;whiteSpace=wrap;html=1;labelBackgroundColor=none;" vertex="1" parent="1">
          <mxGeometry x="130" y="290" width="140" height="104" as="geometry" />
        </mxCell>
        <mxCell id="8p2BNzOD3IAKoTxh3BdR-37" value="+ name: String" style="text;strokeColor=none;fillColor=none;align=left;verticalAlign=top;spacingLeft=4;spacingRight=4;overflow=hidden;rotatable=0;points=[[0,0.5],[1,0.5]];portConstraint=eastwest;whiteSpace=wrap;html=1;labelBackgroundColor=none;" vertex="1" parent="8p2BNzOD3IAKoTxh3BdR-36">
          <mxGeometry y="26" width="140" height="26" as="geometry" />
        </mxCell>
        <mxCell id="8p2BNzOD3IAKoTxh3BdR-38" value="+ gender: String" style="text;strokeColor=none;fillColor=none;align=left;verticalAlign=top;spacingLeft=4;spacingRight=4;overflow=hidden;rotatable=0;points=[[0,0.5],[1,0.5]];portConstraint=eastwest;whiteSpace=wrap;html=1;labelBackgroundColor=none;" vertex="1" parent="8p2BNzOD3IAKoTxh3BdR-36">
          <mxGeometry y="52" width="140" height="26" as="geometry" />
        </mxCell>
        <mxCell id="8p2BNzOD3IAKoTxh3BdR-39" value="+ birth: Date" style="text;strokeColor=none;fillColor=none;align=left;verticalAlign=top;spacingLeft=4;spacingRight=4;overflow=hidden;rotatable=0;points=[[0,0.5],[1,0.5]];portConstraint=eastwest;whiteSpace=wrap;html=1;labelBackgroundColor=none;" vertex="1" parent="8p2BNzOD3IAKoTxh3BdR-36">
          <mxGeometry y="78" width="140" height="26" as="geometry" />
        </mxCell>
        <mxCell id="8p2BNzOD3IAKoTxh3BdR-40" style="edgeStyle=orthogonalEdgeStyle;rounded=0;orthogonalLoop=1;jettySize=auto;html=1;endArrow=none;endFill=0;labelBackgroundColor=none;fontColor=default;" edge="1" parent="1" source="8p2BNzOD3IAKoTxh3BdR-43" target="8p2BNzOD3IAKoTxh3BdR-30">
          <mxGeometry relative="1" as="geometry">
            <Array as="points">
              <mxPoint x="565" y="440" />
              <mxPoint x="565" y="440" />
            </Array>
          </mxGeometry>
        </mxCell>
        <mxCell id="8p2BNzOD3IAKoTxh3BdR-41" value="0..*" style="edgeLabel;html=1;align=center;verticalAlign=middle;resizable=0;points=[];labelBackgroundColor=none;" vertex="1" connectable="0" parent="8p2BNzOD3IAKoTxh3BdR-40">
          <mxGeometry x="0.7675" relative="1" as="geometry">
            <mxPoint y="3" as="offset" />
          </mxGeometry>
        </mxCell>
        <mxCell id="8p2BNzOD3IAKoTxh3BdR-42" value="has 1..* Locations &lt;br&gt;the Team owns" style="edgeLabel;html=1;align=center;verticalAlign=middle;resizable=0;points=[];labelBackgroundColor=default;" vertex="1" connectable="0" parent="8p2BNzOD3IAKoTxh3BdR-40">
          <mxGeometry x="-0.5972" relative="1" as="geometry">
            <mxPoint x="8" y="4" as="offset" />
          </mxGeometry>
        </mxCell>
        <mxCell id="8p2BNzOD3IAKoTxh3BdR-43" value="Location" style="swimlane;fontStyle=0;childLayout=stackLayout;horizontal=1;startSize=26;fillColor=default;horizontalStack=0;resizeParent=1;resizeParentMax=0;resizeLast=0;collapsible=1;marginBottom=0;whiteSpace=wrap;html=1;labelBackgroundColor=none;" vertex="1" parent="1">
          <mxGeometry x="620" y="493.15" width="140" height="104" as="geometry" />
        </mxCell>
        <mxCell id="8p2BNzOD3IAKoTxh3BdR-44" value="+ name: String" style="text;strokeColor=none;fillColor=none;align=left;verticalAlign=top;spacingLeft=4;spacingRight=4;overflow=hidden;rotatable=0;points=[[0,0.5],[1,0.5]];portConstraint=eastwest;whiteSpace=wrap;html=1;labelBackgroundColor=none;" vertex="1" parent="8p2BNzOD3IAKoTxh3BdR-43">
          <mxGeometry y="26" width="140" height="26" as="geometry" />
        </mxCell>
        <mxCell id="8p2BNzOD3IAKoTxh3BdR-45" value="+ description: String" style="text;strokeColor=none;fillColor=none;align=left;verticalAlign=top;spacingLeft=4;spacingRight=4;overflow=hidden;rotatable=0;points=[[0,0.5],[1,0.5]];portConstraint=eastwest;whiteSpace=wrap;html=1;labelBackgroundColor=none;" vertex="1" parent="8p2BNzOD3IAKoTxh3BdR-43">
          <mxGeometry y="52" width="140" height="26" as="geometry" />
        </mxCell>
        <mxCell id="8p2BNzOD3IAKoTxh3BdR-46" value="+ address: String" style="text;strokeColor=none;fillColor=none;align=left;verticalAlign=top;spacingLeft=4;spacingRight=4;overflow=hidden;rotatable=0;points=[[0,0.5],[1,0.5]];portConstraint=eastwest;whiteSpace=wrap;html=1;labelBackgroundColor=none;" vertex="1" parent="8p2BNzOD3IAKoTxh3BdR-43">
          <mxGeometry y="78" width="140" height="26" as="geometry" />
        </mxCell>
        <mxCell id="8p2BNzOD3IAKoTxh3BdR-47" style="edgeStyle=orthogonalEdgeStyle;rounded=0;orthogonalLoop=1;jettySize=auto;html=1;startArrow=diamond;startFill=1;endArrow=none;endFill=0;labelBackgroundColor=none;fontColor=default;" edge="1" parent="1" source="8p2BNzOD3IAKoTxh3BdR-53" target="8p2BNzOD3IAKoTxh3BdR-68">
          <mxGeometry relative="1" as="geometry" />
        </mxCell>
        <mxCell id="8p2BNzOD3IAKoTxh3BdR-48" value="has 1 ActionType&lt;br&gt;defining recurring&lt;br&gt;things that happen&lt;br&gt;in Matches" style="edgeLabel;html=1;align=center;verticalAlign=middle;resizable=0;points=[];labelBackgroundColor=default;" vertex="1" connectable="0" parent="8p2BNzOD3IAKoTxh3BdR-47">
          <mxGeometry x="0.6573" y="-1" relative="1" as="geometry">
            <mxPoint x="16" y="-19" as="offset" />
          </mxGeometry>
        </mxCell>
        <mxCell id="8p2BNzOD3IAKoTxh3BdR-49" value="0..*" style="edgeLabel;html=1;align=center;verticalAlign=middle;resizable=0;points=[];labelBackgroundColor=none;" vertex="1" connectable="0" parent="8p2BNzOD3IAKoTxh3BdR-47">
          <mxGeometry x="-0.5021" y="1" relative="1" as="geometry">
            <mxPoint x="9" y="-8" as="offset" />
          </mxGeometry>
        </mxCell>
        <mxCell id="8p2BNzOD3IAKoTxh3BdR-50" style="edgeStyle=orthogonalEdgeStyle;rounded=0;orthogonalLoop=1;jettySize=auto;html=1;endArrow=none;endFill=0;labelBackgroundColor=none;fontColor=default;" edge="1" parent="1" source="8p2BNzOD3IAKoTxh3BdR-53" target="8p2BNzOD3IAKoTxh3BdR-89">
          <mxGeometry relative="1" as="geometry">
            <Array as="points">
              <mxPoint x="80" y="770" />
              <mxPoint x="80" y="770" />
            </Array>
          </mxGeometry>
        </mxCell>
        <mxCell id="8p2BNzOD3IAKoTxh3BdR-51" value="has 1 User that&lt;br&gt;created the Action" style="edgeLabel;html=1;align=center;verticalAlign=middle;resizable=0;points=[];labelBackgroundColor=default;" vertex="1" connectable="0" parent="8p2BNzOD3IAKoTxh3BdR-50">
          <mxGeometry x="0.8481" relative="1" as="geometry">
            <mxPoint y="8" as="offset" />
          </mxGeometry>
        </mxCell>
        <mxCell id="8p2BNzOD3IAKoTxh3BdR-52" value="0..*" style="edgeLabel;html=1;align=center;verticalAlign=middle;resizable=0;points=[];labelBackgroundColor=none;" vertex="1" connectable="0" parent="8p2BNzOD3IAKoTxh3BdR-50">
          <mxGeometry x="-0.6199" relative="1" as="geometry">
            <mxPoint x="-3" y="7" as="offset" />
          </mxGeometry>
        </mxCell>
        <mxCell id="8p2BNzOD3IAKoTxh3BdR-53" value="Action" style="swimlane;fontStyle=0;childLayout=stackLayout;horizontal=1;startSize=26;fillColor=default;horizontalStack=0;resizeParent=1;resizeParentMax=0;resizeLast=0;collapsible=1;marginBottom=0;whiteSpace=wrap;html=1;labelBackgroundColor=none;" vertex="1" parent="1">
          <mxGeometry x="25" y="832.85" width="140" height="104" as="geometry" />
        </mxCell>
        <mxCell id="8p2BNzOD3IAKoTxh3BdR-54" value="- timestamp: Long" style="text;strokeColor=none;fillColor=none;align=left;verticalAlign=top;spacingLeft=4;spacingRight=4;overflow=hidden;rotatable=0;points=[[0,0.5],[1,0.5]];portConstraint=eastwest;whiteSpace=wrap;html=1;labelBackgroundColor=none;" vertex="1" parent="8p2BNzOD3IAKoTxh3BdR-53">
          <mxGeometry y="26" width="140" height="26" as="geometry" />
        </mxCell>
        <mxCell id="8p2BNzOD3IAKoTxh3BdR-55" value="+ note: String" style="text;strokeColor=none;fillColor=none;align=left;verticalAlign=top;spacingLeft=4;spacingRight=4;overflow=hidden;rotatable=0;points=[[0,0.5],[1,0.5]];portConstraint=eastwest;whiteSpace=wrap;html=1;labelBackgroundColor=none;" vertex="1" parent="8p2BNzOD3IAKoTxh3BdR-53">
          <mxGeometry y="52" width="140" height="26" as="geometry" />
        </mxCell>
        <mxCell id="8p2BNzOD3IAKoTxh3BdR-56" value="+ description: String" style="text;strokeColor=none;fillColor=none;align=left;verticalAlign=top;spacingLeft=4;spacingRight=4;overflow=hidden;rotatable=0;points=[[0,0.5],[1,0.5]];portConstraint=eastwest;whiteSpace=wrap;html=1;labelBackgroundColor=none;" vertex="1" parent="8p2BNzOD3IAKoTxh3BdR-53">
          <mxGeometry y="78" width="140" height="26" as="geometry" />
        </mxCell>
        <mxCell id="8p2BNzOD3IAKoTxh3BdR-57" value="Player" style="swimlane;fontStyle=0;childLayout=stackLayout;horizontal=1;startSize=26;fillColor=default;horizontalStack=0;resizeParent=1;resizeParentMax=0;resizeLast=0;collapsible=1;marginBottom=0;whiteSpace=wrap;html=1;labelBackgroundColor=none;" vertex="1" parent="1">
          <mxGeometry x="340" y="190" width="140" height="130" as="geometry" />
        </mxCell>
        <mxCell id="8p2BNzOD3IAKoTxh3BdR-58" value="+ name: String" style="text;strokeColor=none;fillColor=none;align=left;verticalAlign=top;spacingLeft=4;spacingRight=4;overflow=hidden;rotatable=0;points=[[0,0.5],[1,0.5]];portConstraint=eastwest;whiteSpace=wrap;html=1;labelBackgroundColor=none;" vertex="1" parent="8p2BNzOD3IAKoTxh3BdR-57">
          <mxGeometry y="26" width="140" height="26" as="geometry" />
        </mxCell>
        <mxCell id="8p2BNzOD3IAKoTxh3BdR-59" value="+ gender: String" style="text;strokeColor=none;fillColor=none;align=left;verticalAlign=top;spacingLeft=4;spacingRight=4;overflow=hidden;rotatable=0;points=[[0,0.5],[1,0.5]];portConstraint=eastwest;whiteSpace=wrap;html=1;labelBackgroundColor=none;" vertex="1" parent="8p2BNzOD3IAKoTxh3BdR-57">
          <mxGeometry y="52" width="140" height="26" as="geometry" />
        </mxCell>
        <mxCell id="8p2BNzOD3IAKoTxh3BdR-60" value="+ birth: Date" style="text;strokeColor=none;fillColor=none;align=left;verticalAlign=top;spacingLeft=4;spacingRight=4;overflow=hidden;rotatable=0;points=[[0,0.5],[1,0.5]];portConstraint=eastwest;whiteSpace=wrap;html=1;labelBackgroundColor=none;" vertex="1" parent="8p2BNzOD3IAKoTxh3BdR-57">
          <mxGeometry y="78" width="140" height="26" as="geometry" />
        </mxCell>
        <mxCell id="8p2BNzOD3IAKoTxh3BdR-61" value="+ number: int" style="text;strokeColor=none;fillColor=none;align=left;verticalAlign=top;spacingLeft=4;spacingRight=4;overflow=hidden;rotatable=0;points=[[0,0.5],[1,0.5]];portConstraint=eastwest;whiteSpace=wrap;html=1;labelBackgroundColor=none;" vertex="1" parent="8p2BNzOD3IAKoTxh3BdR-57">
          <mxGeometry y="104" width="140" height="26" as="geometry" />
        </mxCell>
        <mxCell id="8p2BNzOD3IAKoTxh3BdR-62" value="Ruleset" style="swimlane;fontStyle=0;childLayout=stackLayout;horizontal=1;startSize=26;fillColor=default;horizontalStack=0;resizeParent=1;resizeParentMax=0;resizeLast=0;collapsible=1;marginBottom=0;whiteSpace=wrap;html=1;labelBackgroundColor=none;" vertex="1" parent="1">
          <mxGeometry x="580" y="832.85" width="140" height="156" as="geometry" />
        </mxCell>
        <mxCell id="8p2BNzOD3IAKoTxh3BdR-63" value="+ name: String" style="text;strokeColor=none;fillColor=none;align=left;verticalAlign=top;spacingLeft=4;spacingRight=4;overflow=hidden;rotatable=0;points=[[0,0.5],[1,0.5]];portConstraint=eastwest;whiteSpace=wrap;html=1;labelBackgroundColor=none;" vertex="1" parent="8p2BNzOD3IAKoTxh3BdR-62">
          <mxGeometry y="26" width="140" height="26" as="geometry" />
        </mxCell>
        <mxCell id="8p2BNzOD3IAKoTxh3BdR-64" value="+ description: String" style="text;strokeColor=none;fillColor=none;align=left;verticalAlign=top;spacingLeft=4;spacingRight=4;overflow=hidden;rotatable=0;points=[[0,0.5],[1,0.5]];portConstraint=eastwest;whiteSpace=wrap;html=1;labelBackgroundColor=none;" vertex="1" parent="8p2BNzOD3IAKoTxh3BdR-62">
          <mxGeometry y="52" width="140" height="26" as="geometry" />
        </mxCell>
        <mxCell id="8p2BNzOD3IAKoTxh3BdR-65" value="+ periods: int" style="text;strokeColor=none;fillColor=none;align=left;verticalAlign=top;spacingLeft=4;spacingRight=4;overflow=hidden;rotatable=0;points=[[0,0.5],[1,0.5]];portConstraint=eastwest;whiteSpace=wrap;html=1;labelBackgroundColor=none;" vertex="1" parent="8p2BNzOD3IAKoTxh3BdR-62">
          <mxGeometry y="78" width="140" height="26" as="geometry" />
        </mxCell>
        <mxCell id="8p2BNzOD3IAKoTxh3BdR-66" value="+ length: int" style="text;strokeColor=none;fillColor=none;align=left;verticalAlign=top;spacingLeft=4;spacingRight=4;overflow=hidden;rotatable=0;points=[[0,0.5],[1,0.5]];portConstraint=eastwest;whiteSpace=wrap;html=1;labelBackgroundColor=none;" vertex="1" parent="8p2BNzOD3IAKoTxh3BdR-62">
          <mxGeometry y="104" width="140" height="26" as="geometry" />
        </mxCell>
        <mxCell id="8p2BNzOD3IAKoTxh3BdR-67" value="+ extendable: boolean" style="text;strokeColor=none;fillColor=none;align=left;verticalAlign=top;spacingLeft=4;spacingRight=4;overflow=hidden;rotatable=0;points=[[0,0.5],[1,0.5]];portConstraint=eastwest;whiteSpace=wrap;html=1;labelBackgroundColor=none;" vertex="1" parent="8p2BNzOD3IAKoTxh3BdR-62">
          <mxGeometry y="130" width="140" height="26" as="geometry" />
        </mxCell>
        <mxCell id="8p2BNzOD3IAKoTxh3BdR-68" value="ActionType" style="swimlane;fontStyle=0;childLayout=stackLayout;horizontal=1;startSize=26;fillColor=default;horizontalStack=0;resizeParent=1;resizeParentMax=0;resizeLast=0;collapsible=1;marginBottom=0;whiteSpace=wrap;html=1;labelBackgroundColor=none;" vertex="1" parent="1">
          <mxGeometry x="25" y="1048.5" width="140" height="52" as="geometry" />
        </mxCell>
        <mxCell id="8p2BNzOD3IAKoTxh3BdR-69" value="+ name: String" style="text;strokeColor=none;fillColor=none;align=left;verticalAlign=top;spacingLeft=4;spacingRight=4;overflow=hidden;rotatable=0;points=[[0,0.5],[1,0.5]];portConstraint=eastwest;whiteSpace=wrap;html=1;labelBackgroundColor=none;" vertex="1" parent="8p2BNzOD3IAKoTxh3BdR-68">
          <mxGeometry y="26" width="140" height="26" as="geometry" />
        </mxCell>
        <mxCell id="8p2BNzOD3IAKoTxh3BdR-70" value="Position" style="swimlane;fontStyle=0;childLayout=stackLayout;horizontal=1;startSize=26;fillColor=default;horizontalStack=0;resizeParent=1;resizeParentMax=0;resizeLast=0;collapsible=1;marginBottom=0;whiteSpace=wrap;html=1;labelBackgroundColor=none;" vertex="1" parent="1">
          <mxGeometry x="60" y="80" width="140" height="78" as="geometry" />
        </mxCell>
        <mxCell id="8p2BNzOD3IAKoTxh3BdR-71" value="+ name: String" style="text;strokeColor=none;fillColor=none;align=left;verticalAlign=top;spacingLeft=4;spacingRight=4;overflow=hidden;rotatable=0;points=[[0,0.5],[1,0.5]];portConstraint=eastwest;whiteSpace=wrap;html=1;labelBackgroundColor=none;" vertex="1" parent="8p2BNzOD3IAKoTxh3BdR-70">
          <mxGeometry y="26" width="140" height="26" as="geometry" />
        </mxCell>
        <mxCell id="8p2BNzOD3IAKoTxh3BdR-72" value="+ description: String" style="text;strokeColor=none;fillColor=none;align=left;verticalAlign=top;spacingLeft=4;spacingRight=4;overflow=hidden;rotatable=0;points=[[0,0.5],[1,0.5]];portConstraint=eastwest;whiteSpace=wrap;html=1;labelBackgroundColor=none;" vertex="1" parent="8p2BNzOD3IAKoTxh3BdR-70">
          <mxGeometry y="52" width="140" height="26" as="geometry" />
        </mxCell>
        <mxCell id="8p2BNzOD3IAKoTxh3BdR-73" value="" style="edgeStyle=orthogonalEdgeStyle;rounded=0;orthogonalLoop=1;jettySize=auto;html=1;exitX=0.5;exitY=0;exitDx=0;exitDy=0;endArrow=none;endFill=0;startArrow=diamond;startFill=0;labelBackgroundColor=none;fontColor=default;" edge="1" parent="1" source="8p2BNzOD3IAKoTxh3BdR-57" target="8p2BNzOD3IAKoTxh3BdR-70">
          <mxGeometry relative="1" as="geometry">
            <mxPoint x="595" y="120" as="targetPoint" />
            <Array as="points">
              <mxPoint x="410" y="130" />
            </Array>
          </mxGeometry>
        </mxCell>
        <mxCell id="8p2BNzOD3IAKoTxh3BdR-74" value="has 1 Position&lt;br&gt;in a Team" style="edgeLabel;html=1;align=center;verticalAlign=middle;resizable=0;points=[];labelBackgroundColor=none;" vertex="1" connectable="0" parent="8p2BNzOD3IAKoTxh3BdR-73">
          <mxGeometry x="0.9101" y="-1" relative="1" as="geometry">
            <mxPoint x="26" y="20" as="offset" />
          </mxGeometry>
        </mxCell>
        <mxCell id="8p2BNzOD3IAKoTxh3BdR-75" value="0..*" style="edgeLabel;html=1;align=center;verticalAlign=middle;resizable=0;points=[];labelBackgroundColor=none;" vertex="1" connectable="0" parent="8p2BNzOD3IAKoTxh3BdR-73">
          <mxGeometry x="-0.8776" relative="1" as="geometry">
            <mxPoint x="10" y="-10" as="offset" />
          </mxGeometry>
        </mxCell>
        <mxCell id="8p2BNzOD3IAKoTxh3BdR-76" value="Trainer" style="swimlane;fontStyle=0;childLayout=stackLayout;horizontal=1;startSize=26;fillColor=default;horizontalStack=0;resizeParent=1;resizeParentMax=0;resizeLast=0;collapsible=1;marginBottom=0;whiteSpace=wrap;html=1;labelBackgroundColor=none;" vertex="1" parent="1">
          <mxGeometry x="650" y="117" width="140" height="104" as="geometry" />
        </mxCell>
        <mxCell id="8p2BNzOD3IAKoTxh3BdR-77" value="+ name: String" style="text;strokeColor=none;fillColor=none;align=left;verticalAlign=top;spacingLeft=4;spacingRight=4;overflow=hidden;rotatable=0;points=[[0,0.5],[1,0.5]];portConstraint=eastwest;whiteSpace=wrap;html=1;labelBackgroundColor=none;" vertex="1" parent="8p2BNzOD3IAKoTxh3BdR-76">
          <mxGeometry y="26" width="140" height="26" as="geometry" />
        </mxCell>
        <mxCell id="8p2BNzOD3IAKoTxh3BdR-78" value="+ gender: String" style="text;strokeColor=none;fillColor=none;align=left;verticalAlign=top;spacingLeft=4;spacingRight=4;overflow=hidden;rotatable=0;points=[[0,0.5],[1,0.5]];portConstraint=eastwest;whiteSpace=wrap;html=1;labelBackgroundColor=none;" vertex="1" parent="8p2BNzOD3IAKoTxh3BdR-76">
          <mxGeometry y="52" width="140" height="26" as="geometry" />
        </mxCell>
        <mxCell id="8p2BNzOD3IAKoTxh3BdR-79" value="+ brith: Date" style="text;strokeColor=none;fillColor=none;align=left;verticalAlign=top;spacingLeft=4;spacingRight=4;overflow=hidden;rotatable=0;points=[[0,0.5],[1,0.5]];portConstraint=eastwest;whiteSpace=wrap;html=1;labelBackgroundColor=none;" vertex="1" parent="8p2BNzOD3IAKoTxh3BdR-76">
          <mxGeometry y="78" width="140" height="26" as="geometry" />
        </mxCell>
        <mxCell id="8p2BNzOD3IAKoTxh3BdR-80" style="edgeStyle=orthogonalEdgeStyle;rounded=0;orthogonalLoop=1;jettySize=auto;html=1;endArrow=none;endFill=0;labelBackgroundColor=none;fontColor=default;" edge="1" parent="1" source="8p2BNzOD3IAKoTxh3BdR-83" target="8p2BNzOD3IAKoTxh3BdR-57">
          <mxGeometry relative="1" as="geometry">
            <mxPoint x="375.0434782608695" y="601" as="sourcePoint" />
            <Array as="points">
              <mxPoint x="400" y="340" />
              <mxPoint x="400" y="340" />
            </Array>
          </mxGeometry>
        </mxCell>
        <mxCell id="8p2BNzOD3IAKoTxh3BdR-81" value="0..*" style="edgeLabel;html=1;align=center;verticalAlign=middle;resizable=0;points=[];labelBackgroundColor=none;" vertex="1" connectable="0" parent="8p2BNzOD3IAKoTxh3BdR-80">
          <mxGeometry x="-0.9256" y="1" relative="1" as="geometry">
            <mxPoint as="offset" />
          </mxGeometry>
        </mxCell>
        <mxCell id="8p2BNzOD3IAKoTxh3BdR-82" value="is 1 Player in&lt;br&gt;a Lineup" style="edgeLabel;html=1;align=center;verticalAlign=middle;resizable=0;points=[];labelBackgroundColor=default;" vertex="1" connectable="0" parent="8p2BNzOD3IAKoTxh3BdR-80">
          <mxGeometry x="0.9244" y="1" relative="1" as="geometry">
            <mxPoint x="11" y="10" as="offset" />
          </mxGeometry>
        </mxCell>
        <mxCell id="8p2BNzOD3IAKoTxh3BdR-83" value="Lineup" style="swimlane;fontStyle=0;childLayout=stackLayout;horizontal=1;startSize=26;fillColor=default;horizontalStack=0;resizeParent=1;resizeParentMax=0;resizeLast=0;collapsible=1;marginBottom=0;whiteSpace=wrap;html=1;labelBackgroundColor=none;" vertex="1" parent="1">
          <mxGeometry x="300" y="588.85" width="160" height="78" as="geometry" />
        </mxCell>
        <mxCell id="8p2BNzOD3IAKoTxh3BdR-84" value="+ side: String" style="text;strokeColor=none;fillColor=none;align=left;verticalAlign=top;spacingLeft=4;spacingRight=4;overflow=hidden;rotatable=0;points=[[0,0.5],[1,0.5]];portConstraint=eastwest;whiteSpace=wrap;html=1;labelBackgroundColor=none;" vertex="1" parent="8p2BNzOD3IAKoTxh3BdR-83">
          <mxGeometry y="26" width="160" height="26" as="geometry" />
        </mxCell>
        <mxCell id="8p2BNzOD3IAKoTxh3BdR-85" value="+ isStartingLineup: boolean" style="text;strokeColor=none;fillColor=none;align=left;verticalAlign=top;spacingLeft=4;spacingRight=4;overflow=hidden;rotatable=0;points=[[0,0.5],[1,0.5]];portConstraint=eastwest;whiteSpace=wrap;html=1;labelBackgroundColor=none;" vertex="1" parent="8p2BNzOD3IAKoTxh3BdR-83">
          <mxGeometry y="52" width="160" height="26" as="geometry" />
        </mxCell>
        <mxCell id="8p2BNzOD3IAKoTxh3BdR-86" style="edgeStyle=orthogonalEdgeStyle;rounded=0;orthogonalLoop=1;jettySize=auto;html=1;endArrow=none;endFill=0;labelBackgroundColor=none;fontColor=default;" edge="1" parent="1" source="8p2BNzOD3IAKoTxh3BdR-83" target="8p2BNzOD3IAKoTxh3BdR-70">
          <mxGeometry relative="1" as="geometry">
            <mxPoint x="305.0434782608695" y="601" as="sourcePoint" />
            <Array as="points">
              <mxPoint x="320" y="240" />
              <mxPoint x="170" y="240" />
            </Array>
          </mxGeometry>
        </mxCell>
        <mxCell id="8p2BNzOD3IAKoTxh3BdR-87" value="0..*" style="edgeLabel;html=1;align=center;verticalAlign=middle;resizable=0;points=[];labelBackgroundColor=none;" vertex="1" connectable="0" parent="8p2BNzOD3IAKoTxh3BdR-86">
          <mxGeometry x="-0.9636" relative="1" as="geometry">
            <mxPoint y="-3" as="offset" />
          </mxGeometry>
        </mxCell>
        <mxCell id="8p2BNzOD3IAKoTxh3BdR-88" value="has 1 Position of&lt;br&gt;a Player in the Lineup" style="edgeLabel;html=1;align=center;verticalAlign=middle;resizable=0;points=[];labelBackgroundColor=default;" vertex="1" connectable="0" parent="8p2BNzOD3IAKoTxh3BdR-86">
          <mxGeometry x="0.9799" relative="1" as="geometry">
            <mxPoint x="30" y="26" as="offset" />
          </mxGeometry>
        </mxCell>
        <mxCell id="8p2BNzOD3IAKoTxh3BdR-89" value="User" style="swimlane;fontStyle=0;childLayout=stackLayout;horizontal=1;startSize=26;fillColor=default;horizontalStack=0;resizeParent=1;resizeParentMax=0;resizeLast=0;collapsible=1;marginBottom=0;whiteSpace=wrap;html=1;labelBackgroundColor=none;" vertex="1" parent="1">
          <mxGeometry x="25" y="630" width="140" height="104" as="geometry" />
        </mxCell>
        <mxCell id="8p2BNzOD3IAKoTxh3BdR-90" value="+ name: String" style="text;strokeColor=none;fillColor=none;align=left;verticalAlign=top;spacingLeft=4;spacingRight=4;overflow=hidden;rotatable=0;points=[[0,0.5],[1,0.5]];portConstraint=eastwest;whiteSpace=wrap;html=1;labelBackgroundColor=none;" vertex="1" parent="8p2BNzOD3IAKoTxh3BdR-89">
          <mxGeometry y="26" width="140" height="26" as="geometry" />
        </mxCell>
        <mxCell id="8p2BNzOD3IAKoTxh3BdR-91" value="+ email: String" style="text;strokeColor=none;fillColor=none;align=left;verticalAlign=top;spacingLeft=4;spacingRight=4;overflow=hidden;rotatable=0;points=[[0,0.5],[1,0.5]];portConstraint=eastwest;whiteSpace=wrap;html=1;labelBackgroundColor=none;" vertex="1" parent="8p2BNzOD3IAKoTxh3BdR-89">
          <mxGeometry y="52" width="140" height="26" as="geometry" />
        </mxCell>
        <mxCell id="8p2BNzOD3IAKoTxh3BdR-92" value="- secret: String" style="text;strokeColor=none;fillColor=none;align=left;verticalAlign=top;spacingLeft=4;spacingRight=4;overflow=hidden;rotatable=0;points=[[0,0.5],[1,0.5]];portConstraint=eastwest;whiteSpace=wrap;html=1;labelBackgroundColor=none;" vertex="1" parent="8p2BNzOD3IAKoTxh3BdR-89">
          <mxGeometry y="78" width="140" height="26" as="geometry" />
        </mxCell>
        <mxCell id="8p2BNzOD3IAKoTxh3BdR-93" style="edgeStyle=orthogonalEdgeStyle;rounded=0;orthogonalLoop=1;jettySize=auto;html=1;endArrow=none;endFill=0;startArrow=diamond;startFill=0;" edge="1" parent="1">
          <mxGeometry relative="1" as="geometry">
            <mxPoint x="690" y="117" as="sourcePoint" />
            <mxPoint x="200" y="100" as="targetPoint" />
            <Array as="points">
              <mxPoint x="690" y="100" />
              <mxPoint x="200" y="100" />
            </Array>
          </mxGeometry>
        </mxCell>
        <mxCell id="8p2BNzOD3IAKoTxh3BdR-94" value="has 1 Position&amp;nbsp;&lt;br&gt;in a Team" style="edgeLabel;html=1;align=center;verticalAlign=middle;resizable=0;points=[];" vertex="1" connectable="0" parent="8p2BNzOD3IAKoTxh3BdR-93">
          <mxGeometry x="0.9512" relative="1" as="geometry">
            <mxPoint x="38" y="-16" as="offset" />
          </mxGeometry>
        </mxCell>
        <mxCell id="8p2BNzOD3IAKoTxh3BdR-95" value="0..*" style="edgeLabel;html=1;align=center;verticalAlign=middle;resizable=0;points=[];" vertex="1" connectable="0" parent="8p2BNzOD3IAKoTxh3BdR-93">
          <mxGeometry x="-0.9094" y="1" relative="1" as="geometry">
            <mxPoint as="offset" />
          </mxGeometry>
        </mxCell>
      </root>
    </mxGraphModel>
  </diagram>
</mxfile>
